<svg xmlns="http://www.w3.org/2000/svg" viewBox="0 0 1440 320"><path fill="#00cba9" fill-opacity="1" d="M0,64L17.1,90.7C34.3,117,69,171,103,165.3C137.1,160,171,96,206,101.3C240,107,274,181,309,181.3C342.9,181,377,107,411,96C445.7,85,480,139,514,176C548.6,213,583,235,617,229.3C651.4,224,686,192,720,181.3C754.3,171,789,181,823,181.3C857.1,181,891,171,926,176C960,181,994,203,1029,208C1062.9,213,1097,203,1131,165.3C1165.7,128,1200,64,1234,74.7C1268.6,85,1303,171,1337,176C1371.4,181,1406,107,1423,69.3L1440,32L1440,320L1422.9,320C1405.7,320,1371,320,1337,320C1302.9,320,1269,320,1234,320C1200,320,1166,320,1131,320C1097.1,320,1063,320,1029,320C994.3,320,960,320,926,320C891.4,320,857,320,823,320C788.6,320,754,320,720,320C685.7,320,651,320,617,320C582.9,320,549,320,514,320C480,320,446,320,411,320C377.1,320,343,320,309,320C274.3,320,240,320,206,320C171.4,320,137,320,103,320C68.6,320,34,320,17,320L0,320Z"></path></svg>